<svg xmlns="http://www.w3.org/2000/svg" viewBox="0 0 762 762" fill="none" shape-rendering="auto"><metadata xmlns:rdf="http://www.w3.org/1999/02/22-rdf-syntax-ns#" xmlns:xsi="http://www.w3.org/2001/XMLSchema-instance" xmlns:dc="http://purl.org/dc/elements/1.1/" xmlns:dcterms="http://purl.org/dc/terms/"><rdf:RDF><rdf:Description><dc:title>Adventurer</dc:title><dc:creator>Lisa Wischofsky</dc:creator><dc:source xsi:type="dcterms:URI">https://www.figma.com/community/file/1184595184137881796</dc:source><dcterms:license xsi:type="dcterms:URI">https://creativecommons.org/licenses/by/4.0/</dcterms:license><dc:rights>Remix of „Adventurer” (https://www.figma.com/community/file/1184595184137881796) by „Lisa Wischofsky”, licensed under „CC BY 4.0” (https://creativecommons.org/licenses/by/4.0/)</dc:rights></rdf:Description></rdf:RDF></metadata><mask id="viewboxMask"><rect width="762" height="762" rx="0" ry="0" x="0" y="0" fill="#fff" /></mask><g mask="url(#viewboxMask)"><path d="M396 164.8a224.8 224.8 0 0 1 104.8 42.4c6.2 4.9 12.5 9.4 18 15a225.4 225.4 0 0 1 71.8 149 58.5 58.5 0 0 1 50.9 42.2 71 71 0 0 1-27.6 76.5c-11 7.7-24.5 12-38 11.7-5 0-10-1.6-15-1.8-1.9 2.2-3.3 4.9-4.8 7.3A223.3 223.3 0 0 1 389 609.8c-11 .7-21.9 2-33 .7a223.7 223.7 0 0 1-178.8-342.3A223.4 223.4 0 0 1 352 163.5c14.6-1.4 29.4-.3 44 1.3Z" fill="#000"/><path fill-rule="evenodd" clip-rule="evenodd" d="M498.8 213.2A216 216 0 0 0 363 169c-13-.2-26.2 1.6-39 4a218 218 0 0 0-113.6 365.5 218.5 218.5 0 0 0 260.4 40.2c35-18.8 64.2-47.3 84.4-81.5l-3-1.6c-2.8-1.4-5.7-3-8-5-2.2-2-.3-5.8 2.7-4.7 1.5.7 3 1.6 4.4 2.4a55 55 0 0 0 59.6-3.6 64.5 64.5 0 0 0 25-69.8 53.1 53.1 0 0 0-24-31 52.6 52.6 0 0 0-47-2.8c-1.6.8-3.4 1.5-5 1.3-2.5-.2-2.8-4.2-.6-5.2 8-4 16.5-5.6 25.4-6.4a217 217 0 0 0-72-146.4c-4.4-4-8.7-8.1-13.9-11.3Zm107.6 196.2c2-1.2 1.3-5.1-1.4-5-2 0-4.2.8-6.2 1.6l-1.4.4a95.1 95.1 0 0 0-25.5 12.4c-2.2 2-2.2 4.4.1 6.2a92 92 0 0 0 5.2 2.8 36 36 0 0 1 13 9.2c-.2 1.9-2 3.4-3.4 4.5l-.2.2c-3.9 3-8.8 5-13.6 7-2.5 1-4.9 2-7.1 3.1-1.7.8-2.6 2.2-1.6 3.9 1 2 3.2 1.1 5 .5l.6-.2 5.4-2.3c5.4-2.3 11-4.5 15.4-8 2.7-2.1 5.1-5.1 5.4-8.7-.5-3.4-2.7-5.7-5.3-7.8a83 83 0 0 0-11.6-7.2l-1.1-.6c5.4-3 10.8-5.6 16.6-7.7l5-1.7a52 52 0 0 0 6.7-2.6Z" fill="#763900"/><g transform="translate(-161 -83)"><path d="M558.2 453.2c11.5-1.6 23.7.2 34 5.5 7.6 4 14.3 10.3 18.1 18a32.5 32.5 0 0 1 2.1 21.8c-2 8-7.2 15.2-13.7 20.2a57.4 57.4 0 0 1-54.2 7.8 43.6 43.6 0 0 1-21.4-16.6 34.2 34.2 0 0 1-5.4-15.9 34.5 34.5 0 0 1 10.3-26c8-8.4 18.9-13 30.2-14.8Z" fill="#000"/><path d="M559.2 459.1c14-2 29.7 1.6 39.8 11.9 6.6 6.5 10.4 17 7.7 26-2 8.2-7.7 14.5-14.6 19.2a52 52 0 0 1-43 5.6c-8.7-2.7-17.1-8.2-21.8-16.1-3-5-4.1-11-3.5-16.7.7-6.8 4.5-13.1 9.3-17.9 7-6.7 16.5-10.7 26-12Z" fill="#fff"/><path d="M369.5 468.7c17.6-2.7 37.9 3.4 47.7 19.1 5.5 8.6 6.3 20 2 29.2-3 6.3-8 11.6-13.8 15.4a52 52 0 0 1-24.4 7.8 48.4 48.4 0 0 1-39.4-15.8 31.3 31.3 0 0 1-7.5-22.4c.5-8.3 4.6-15.7 10.5-21.4 6.9-6.5 15.6-10.3 24.9-11.9Z" fill="#000"/><path d="M376.6 474.1c9.6-.3 19.5 2.3 27.3 8 5.2 3.8 9.5 9.2 11.2 15.4a25 25 0 0 1-2.1 18.6 36.6 36.6 0 0 1-23 16.7 44.9 44.9 0 0 1-40.8-9 26.8 26.8 0 0 1-9.2-22.3c.7-5.4 3.1-10.6 6.8-14.7a41 41 0 0 1 29.8-12.7Z" fill="#fff"/><path d="M551.5 477.6a16 16 0 0 1 19.9 18.4A15.8 15.8 0 0 1 556 509a15.9 15.9 0 0 1-4.5-31.3Z" fill="#000"/><path d="M553.6 483.2c4-.7 7.8.6 10.2 4 3 4 2.3 9.8-1.4 13.2-4.4 4-11.8 3.4-15.1-1.7a10 10 0 0 1 6.3-15.5Z" fill="#fff"/><path d="M618.7 484.2c1.7.3 3.6-.2 4.6 1.4 1.6 2.5 2.4 5.6 2.9 8.5a35 35 0 0 1-9.8 29.2c-3.3 3-7.9 6-12.4 6.2-2.8 0-4.3-2.7-2.4-4.8 3.3-1.7 6.6-2.2 9.5-4.6 6.3-5.3 9.6-14 9.6-22.1 0-4-1.6-7.2-2.7-11l.7-2.8ZM380.4 488.5c4.5-.9 9.2.5 12.7 3.3a17 17 0 0 1 4.7 19.8c-2.6 5.9-8.2 10.2-14.8 10.2-8.5.6-16-6.4-16.4-14.8-1-8.7 5.2-17 13.8-18.5Z" fill="#000"/><path d="M379.5 494.8c5.1-2 11 .6 13 5.7 2.8 6.4-1.6 14.7-8.7 15.4a9.9 9.9 0 0 1-10-4.8 11.4 11.4 0 0 1 5.7-16.3Z" fill="#fff"/><path d="M330.4 503.6c.5 4-1.4 7.4-1.6 11.4-.3 6 2.4 12.1 7.3 15.9 2.4 1.9 5 2.8 7.7 4.3 2 .8 1.9 2 1.6 3.9-1.5 1.8-3.3 1.4-5.3.8a26.3 26.3 0 0 1-16-16 25 25 0 0 1 1.4-19.4c1.3-1.9 3-.9 5-.9Z" fill="#000"/></g><g transform="translate(-161 -83)"><path d="M456 380.4c2.3-.1 2.9 1.7 2.7 3.6-.5 4.7-.8 9.8-2.4 14.2-1.3.4-2.6.6-4 .9-1.1-4.8 0-10.3.7-15.1.4-1.7.8-3.9 3-3.6ZM476.8 386.6c0 3.3-.4 6.4-.7 9.6 41.7.5 83.3.4 125 .8 2.2 0 4 .8 6 1.6-.7 1.5-.3 3.8-2.3 4-8 1.4-16.6.6-24.8 1-17.3.6-34.7 1-52 1.5-17 .2-34 1.2-51 1.4-3.4.4-6.1-2.7-7.3-5.5 0-4.4 1-9.1 2-13.5 1.4-2.4 3-1.6 5-.9ZM439.8 392.2c0 4.9 0 10.8-2.2 15.2-3.3 1.5-7.2 1.8-10.6 2.5l-77 14c-4.2.8-8.7 2.2-13 2.1-2.6-.5-3.3-3.7-.9-5 3.2-1.4 7-1.7 10.4-2.6l87.2-20.3 1.3-5.7c1.6-.2 3.2-.2 4.8-.2Z" fill="#000"/></g><g transform="translate(-161 -83)"><path d="M484.8 621.3a44.2 44.2 0 0 1 30.5 37.2 49.6 49.6 0 0 0-10.9-18A37.2 37.2 0 0 0 477 629a28 28 0 0 0-20.8 10.3c-5.5 6.8-7.7 16-6.7 24.7-.7-4.7-1.9-9.1-1.8-13.9a31 31 0 0 1 10-23.3 29 29 0 0 1 27.1-5.4Z" fill="#D31E1E"/><path d="M477 628.9a37.2 37.2 0 0 1 27.4 11.6c5 5.1 8.4 11.4 11 18 .4 3.5 2.2 6.5-1.4 8.8-8.4.2-16.7.8-25 1-12.3 1-24.7.5-37 2-1.9-2-2.3-3.8-2.5-6.4-1-8.6 1.2-17.9 6.7-24.7A28 28 0 0 1 477 629Z" fill="#000"/><path d="M484.5 635.5c12.6 3 22 14 25.5 26.2-18.3.4-36.6 1.7-54.8 2.2a28 28 0 0 1 7.6-23.1c5.8-5.7 14-7 21.7-5.3Z" fill="#fff"/><path d="M514 667.3c-9.3 7.3-23.6 8.8-35 9.1-8.6 0-19.9-.6-27-6.1 12.3-1.5 24.7-1 37-2 8.3-.2 16.6-.8 25-1Z" fill="#D31E1E"/></g><g transform="translate(-161 -83)"><path d="M489.1 525.9c6.3 4.7 7.6 15 14 20s14.5 7.3 22.2 3.6c1 1.3 2.3 2.3 1.3 4.1-4 7-11.2 10.4-18.7 12.5a40.6 40.6 0 0 1-29.4-2.6c-6.3-3.5-9.9-9.1-14.4-14.5a59.5 59.5 0 0 1-20.4 18.8c-5.8 3-13.3 5-19.8 3.3-6.3-1.8-12-6.1-12.2-13.1-.2-2.4 1.2-2.7 3.1-3.1 1.3 1.3 2.3 2.7 4.2 3 3.5.7 7-1.2 9.1-3.8 5.4-6.4 4.5-17 10.4-22.6 6.2-5.9 16.9-8.1 24.5-4 7.7-5.2 18-6.9 26.1-1.6Z" fill="#000"/></g><g transform="translate(-161 -83)"></g><g transform="translate(-161 -83)"><path d="M728 185c7.8-.4 15.9 1.2 22.5 5.5 5.4 3.5 9.8 8.9 12 15 .4 1.8.7 4-1.5 4.7-4.2.5-8.7-1-13-.6-12.5 1-24.5 6-33.1 15.3a64.8 64.8 0 0 0-16.5 34 33.2 33.2 0 0 0 4.3 23.2c11.5 7.7 22.5 15.4 33.8 23.3a124.9 124.9 0 0 1 38.7 42.4c7.6 14 12.4 29.7 15.6 45.2 4.2 20 5.8 40.5 6 61-.5 6.5-.4 13.1-1.4 19.5-1.4 2.4-5.9 3.7-8.4 4-2.7-.9-4.7-3.9-7-5.5a53 53 0 0 0-60.5-4.5c-4 2.4-5.7 6.4-9.4 9.1-4.9-3-7.4-7.7-11.6-12.1-6.5-7.6-14.2-14-21.5-20.8a71 71 0 0 1-14.7 14.6c-3.6 2.7-7.8 5-12.3 5.9-2.2-.5-2.8-2-2-4a86.3 86.3 0 0 0 8-46.7 78.2 78.2 0 0 0-10.7-32.3c-.5 5.1-1.3 10-3.3 14.8-4.2 10.6-11 21-20.2 27.9-2.4 1.7-5.7 3.8-8.8 3.3-2.6-1.8-3-5.3-4.1-8.2-5.7-17-14.5-32.4-21.2-49.1A140.1 140.1 0 0 0 590 417c.2 1.4-.4 2.7-2 2.5-11 .8-22 1-32.8-.3-2-.2-3.8-1-5.6-2-10.6-4.7-18.6-15.6-24.8-25.1a165 165 0 0 1-17-39c-.5 18.8 1.7 37.3 7.8 55 1.9 5.1 4 10.5 7.4 14.8.8 1.2 2 2.5 2.2 4-.5 2-2.4 3.3-4.4 3.4a631 631 0 0 1-28.8 1.8c-13.2.2-25.6.7-38.6-2.6-2.3-.7-4.4-1.2-6-3a72 72 0 0 1-13.4-22.7c-8-20.5-11-42.9-8.4-64.8-8.3 21-14.2 44.3-11.2 67 .3 3.8 2 7.1 2.7 10.8-1.3 2.7-4 3-6 1a113.6 113.6 0 0 1-31.5-52.1c-3.8 6.4-6.9 13.2-9.7 20.1-3 8.2-5.8 16.3-5.9 25.2 0 2.8-2.6 3.4-5 3.4a94.2 94.2 0 0 1-40-8.1c-.9 4-1.7 7.9-2.8 11.7-2.4 8.8-3.4 18-5 26.9-.6 3.9-.1 8-1.2 11.9-.7 2.8-4.9 2.3-6.3.4a63.4 63.4 0 0 1-15-45.3c.3-9.8 1.5-19.8 4.2-29.2a73.5 73.5 0 0 1-9.5-36.8 83.9 83.9 0 0 1 12.6-45 155 155 0 0 1 46-45.9c-16.4 7.3-31.4 16-44.3 28.6-2 2-3.5 4.5-5.3 6.7-2 1.3-4.1 0-4.3-2.4-.7-7-.4-14 .4-21a69 69 0 0 1 22-40.4 84.4 84.4 0 0 1 36-20.1c16.7-4.6 34.2-6.8 51.5-7.4 32.7-1.3 64.1 3.2 96 9.9 5.1.7 11 3.2 16 1 10.2-3.8 21.1-6.2 32-7.4a170.6 170.6 0 0 1 130.7 43.9 40.5 40.5 0 0 1 2.2-22.6 62.4 62.4 0 0 1 53-39ZM720 576.5c3.9-.2 8.1 1.6 12 2.5 2.5.3 3.1 3.8 1.4 5.4a58 58 0 0 1-15.6 10.4c-2.8 1.4-5.4.9-8.4.7-1.1-4.5 3.2-7.2 5-11 1.8-2.4 3-6.6 5.5-8Z" fill="#000"/><path d="M740.8 192.3c6.5 2 11.4 6.1 14.9 12-9.9-1.3-20.3.9-29.2 5-15 7.1-26 22-31 37.5a50 50 0 0 0-2 26.4c1.2 5.4 3.4 11.9 8.5 14.9 7.6 5 14.9 10.4 22.4 15.6a150.5 150.5 0 0 1 38.1 34.8c16 21.6 22.6 50.3 26.1 76.5 1.9 15 2.7 30 2.2 45.2-.1 4-.3 8-1.6 12-4.2-3.4-8-7-12.7-9.7a59.6 59.6 0 0 0-55-3 48.3 48.3 0 0 0-11.6 9.6c-4.9-5.8-9.8-11.5-15.3-16.7-4.7-4.5-9.9-8.3-14.4-13 2.7-4.7 5-10 6-15.4.3-2.2.6-5.3-1-7.1-1.2-1-2.4-1-3.7-.5-1.2 2.3-.5 5.3-1.2 7.8-2.9 13.2-13.4 24.6-24.3 32 3.6-10.6 6.4-21 6.4-32.2a84.4 84.4 0 0 0-18.6-54c-1.7-1-4.1-.3-4.1 2a55.2 55.2 0 0 1-23.8 49.5c-6.4-20.2-17.1-38.2-24.4-58-.9-1.9-1.9-5.2-4.5-5-2.7-.2-3.4 2.3-4 4.4-2.2 10.4-2 20.3-1.7 30.9.6 6.8 1 13.8 2.7 20.5-9.1.7-18 1-27-.2-5.5-1.8-11-5-15-9.1a99.3 99.3 0 0 1-18.5-27.5 108.1 108.1 0 0 1-11.5-33.7c-1-4.6-.5-9.5-1.8-14-.7-2.6-4.5-2.5-5.2 0-1.8 7.9-2.3 16.1-3 24.2-.4 14.7 1.1 29.8 4.8 44a95 95 0 0 0 10.8 26.9c-8.2.9-16.4.8-24.6 1.7-13.2.4-28 1-40.7-2.8-2.2-3-4.4-5.7-6.4-8.8a121.4 121.4 0 0 1-11.8-89c.6-2.9 2.5-5.6 0-8.1-2.4-.7-3 .1-4.4 1.9-5.6 8.3-9.8 17.5-13.1 27a127.1 127.1 0 0 0-7.3 61.2c-10.3-11.3-18-25-22.8-39.5a93.6 93.6 0 0 1-4.2-47.5c0-1.7.8-3.2-1-4.3-1.8-1.5-4 0-4.4 2a95.5 95.5 0 0 0 .6 39.2c-5 7.9-9 16.6-12.5 25.2-3 8.2-5.7 17-6.2 25.8-12.2-.3-24.5-2-35.7-7a61.6 61.6 0 0 1-23.4-19.5 69.3 69.3 0 0 1-10.1-46.4c2-15.5 8.7-29.8 18.3-42 14.9-19.3 33.7-32.2 54-45.1 1.9-1.2 4.5-2.2 5.9-4 .6-2.6-.8-3.1-2.5-4.3-26.7 8-52 19.8-71.8 39.8-.3-11.8 2-23.6 8.3-33.8a76.3 76.3 0 0 1 41.7-33.1c17.1-5.6 35.5-7.8 53.5-8.6 31.6-1.4 62 2.8 93 8.8 6 1 12 2.6 18 2.7 2.7-.5 5.3-1.6 8-2.5 23.6-7.6 48.7-8.2 73-3.4 30.1 6 58.4 20.7 81.1 41.4 2.5 2.3 4.9 4.8 7.8 6.6 1.2-.6 2.5-1.2 3.5-2 1-2.7-1.7-5.8-2.3-8.5-2.6-8.4-1-17.7 2.6-25.5a57.8 57.8 0 0 1 29.8-28 42.2 42.2 0 0 1 29.3-2.2ZM296.9 388.4a76 76 0 0 0 17.1 15c-1 7.8-3.8 15-5.2 22.6-1.5 7.9-2.8 15.8-3.8 23.7a56 56 0 0 1-9-20.5 98 98 0 0 1 .2-37.4l.7-3.4ZM722.3 582.1l4.4.8a48 48 0 0 1-8.3 5.6c1.2-2.1 2.4-4.5 3.9-6.4Z" fill="#592454"/></g><g transform="translate(-161 -83)"></g></g></svg>